<svg width="80" height="80" viewBox="0 0 80 80" xmlns="http://www.w3.org/2000/svg">
  <!-- CPU base -->
  <rect x="5" y="5" width="70" height="70" rx="4" fill="#2d3748" stroke="#4a5568" stroke-width="2"/>
  
  <!-- CPU pins -->
  <g stroke="#718096" stroke-width="0.5" fill="#4a5568">
    <!-- Top pins -->
    <rect x="10" y="2" width="2" height="3"/>
    <rect x="15" y="2" width="2" height="3"/>
    <rect x="20" y="2" width="2" height="3"/>
    <rect x="25" y="2" width="2" height="3"/>
    <rect x="30" y="2" width="2" height="3"/>
    <rect x="35" y="2" width="2" height="3"/>
    <rect x="40" y="2" width="2" height="3"/>
    <rect x="45" y="2" width="2" height="3"/>
    <rect x="50" y="2" width="2" height="3"/>
    <rect x="55" y="2" width="2" height="3"/>
    <rect x="60" y="2" width="2" height="3"/>
    <rect x="65" y="2" width="2" height="3"/>
    
    <!-- Bottom pins -->
    <rect x="10" y="75" width="2" height="3"/>
    <rect x="15" y="75" width="2" height="3"/>
    <rect x="20" y="75" width="2" height="3"/>
    <rect x="25" y="75" width="2" height="3"/>
    <rect x="30" y="75" width="2" height="3"/>
    <rect x="35" y="75" width="2" height="3"/>
    <rect x="40" y="75" width="2" height="3"/>
    <rect x="45" y="75" width="2" height="3"/>
    <rect x="50" y="75" width="2" height="3"/>
    <rect x="55" y="75" width="2" height="3"/>
    <rect x="60" y="75" width="2" height="3"/>
    <rect x="65" y="75" width="2" height="3"/>
    
    <!-- Left pins -->
    <rect x="2" y="10" width="3" height="2"/>
    <rect x="2" y="15" width="3" height="2"/>
    <rect x="2" y="20" width="3" height="2"/>
    <rect x="2" y="25" width="3" height="2"/>
    <rect x="2" y="30" width="3" height="2"/>
    <rect x="2" y="35" width="3" height="2"/>
    <rect x="2" y="40" width="3" height="2"/>
    <rect x="2" y="45" width="3" height="2"/>
    <rect x="2" y="50" width="3" height="2"/>
    <rect x="2" y="55" width="3" height="2"/>
    <rect x="2" y="60" width="3" height="2"/>
    <rect x="2" y="65" width="3" height="2"/>
    
    <!-- Right pins -->
    <rect x="75" y="10" width="3" height="2"/>
    <rect x="75" y="15" width="3" height="2"/>
    <rect x="75" y="20" width="3" height="2"/>
    <rect x="75" y="25" width="3" height="2"/>
    <rect x="75" y="30" width="3" height="2"/>
    <rect x="75" y="35" width="3" height="2"/>
    <rect x="75" y="40" width="3" height="2"/>
    <rect x="75" y="45" width="3" height="2"/>
    <rect x="75" y="50" width="3" height="2"/>
    <rect x="75" y="55" width="3" height="2"/>
    <rect x="75" y="60" width="3" height="2"/>
    <rect x="75" y="65" width="3" height="2"/>
  </g>
  
  <!-- CPU die -->
  <rect x="15" y="15" width="50" height="50" rx="2" fill="#1a202c" stroke="#2d3748" stroke-width="1"/>
  
  <!-- Brand text -->
  <text x="40" y="35" text-anchor="middle" font-family="Arial, sans-serif" font-size="8" fill="#e2e8f0" font-weight="bold">Intel</text>
  <text x="40" y="45" text-anchor="middle" font-family="Arial, sans-serif" font-size="6" fill="#cbd5e1">Core i7</text>
  
  <!-- Corner marker -->
  <circle cx="10" cy="10" r="2" fill="#fbd38d"/>
  
  <!-- Contact pads -->
  <g fill="#4a5568">
    <rect x="20" y="20" width="4" height="4" rx="0.5"/>
    <rect x="26" y="20" width="4" height="4" rx="0.5"/>
    <rect x="32" y="20" width="4" height="4" rx="0.5"/>
    <rect x="38" y="20" width="4" height="4" rx="0.5"/>
    <rect x="44" y="20" width="4" height="4" rx="0.5"/>
    <rect x="50" y="20" width="4" height="4" rx="0.5"/>
    <rect x="56" y="20" width="4" height="4" rx="0.5"/>
    
    <rect x="20" y="26" width="4" height="4" rx="0.5"/>
    <rect x="56" y="26" width="4" height="4" rx="0.5"/>
    
    <rect x="20" y="32" width="4" height="4" rx="0.5"/>
    <rect x="56" y="32" width="4" height="4" rx="0.5"/>
    
    <rect x="20" y="56" width="4" height="4" rx="0.5"/>
    <rect x="26" y="56" width="4" height="4" rx="0.5"/>
    <rect x="32" y="56" width="4" height="4" rx="0.5"/>
    <rect x="38" y="56" width="4" height="4" rx="0.5"/>
    <rect x="44" y="56" width="4" height="4" rx="0.5"/>
    <rect x="50" y="56" width="4" height="4" rx="0.5"/>
    <rect x="56" y="56" width="4" height="4" rx="0.5"/>
  </g>
</svg>